/* XPM */
static char *_910d0aa5e154407daeabee054df34b0sr1rxgC9fbvBCn8c[] = {
/* columns rows colors chars-per-pixel */
"20 20 4 1 ",
"  c #2D3C4E",
". c #324152",
"X c #324253",
"o c #3A4857",
/* pixels */
"o......o......o.....",
"o     .o.     o     ",
"o      o      o     ",
"o      o      o     ",
".oooooo.oooooo.ooooo",
"o......o......o.....",
"o     .o     .o.    ",
"o      o      o     ",
"o      o      o     ",
".oooooo.oooooo.ooooo",
"o......o......o.....",
"o.     o      o.    ",
"o      o      o     ",
"o      o      o     ",
".oooooo.oooooo.ooooo",
"o......o......o.....",
"o      o     .o     ",
"o      o     .o     ",
"o      o      o     ",
".oooooo.oooooo.ooooo"
};
