/* XPM */
static char *_8a6f474356344dd90451ac8d85e49d1amvqtfYJXZCU2XGb[] = {
/* columns rows colors chars-per-pixel */
"20 20 13 1 ",
"  c black",
". c #010202",
"X c #050607",
"o c #222A33",
"O c #252E38",
"+ c #2D3C4E",
"@ c #324152",
"# c #324253",
"$ c #384554",
"% c #3A4857",
"& c #947B05",
"* c #D4B108",
"= c #EFD456",
/* pixels */
"%@@@@@@%@@@@@@%@@@@@",
"%+++++@%@+++++%+++++",
"%++++++%++++++%+++++",
"%++++++%++++++%+++++",
"@%%%%%%@%%%%%%@%%%%%",
"%@@@@@@%@@@@@@%@@@@@",
"%+++++@%+++  @%@++++",
"%++++++%++ ==  +++++",
"%++++++%+ =&== +++++",
"@%%%%%%@ ===== %%%%%",
"%@@@@@@ ==&=*& @@@@@",
"%@++++ ==&&*** @++++",
"%+++++ ==**** o+++++",
"%+++++ *&**  +%+++++",
"@%%%%%O X  $%%@%%%%%",
"%@@@@@@%@@@@@@%@@@@@",
"%++++++%+++++@%+++++",
"%++++++%+++++@%+++++",
"%++++++%++++++%+++++",
"@%%%%%%@%%%%%%@%%%%%"
};
