/* XPM */
static char *_b3d8dded23c40eaa9277590a4f3f731XH43hsmMuHIZlyXR[] = {
/* columns rows colors chars-per-pixel */
"20 20 35 1 ",
"  c #1F2731",
". c #212A35",
"X c #272E35",
"o c #212C3A",
"O c #2B3137",
"+ c #25303B",
"@ c #25303D",
"# c #273343",
"$ c #2B3541",
"% c #2B394B",
"& c #2C3948",
"* c #2D3C4E",
"= c #303E4E",
"- c #3C4044",
"; c #3D4045",
": c #3E4145",
"> c #3E4246",
", c #3F4347",
"< c #324152",
"1 c #324253",
"2 c #3A4857",
"3 c #404347",
"4 c #484848",
"5 c #494949",
"6 c gray33",
"7 c gray39",
"8 c #7B7C7D",
"9 c #7E7E7E",
"0 c gray50",
"q c #808080",
"w c #848484",
"e c gray52",
"r c #8E8E8E",
"t c gray57",
"y c #929292",
/* pixels */
"2<<<<<<2<<<<<<2<<<<<",
"2*****<2<*****2*****",
"2******2******2*****",
"2******2******2*****",
"<222222<222222<22222",
"2<<<=@@$@@@@@@$&<<<<",
"2**% ----------X.%**",
"2**o-999wwtttr99-o**",
"2**o-97979797979-o**",
"<22$-r6t6t6t6r6r-$22",
"2<<@-t6w6t6t6w6r-@<<",
"2<*o-w6w6w6w6w69-o**",
"2**o-96969696969-o**",
"2**o-9595q5q5959-o**",
"<22$3qqqwwwwwwq83$22",
"2<<=+--3------3O@=<<",
"2***%oo$ooooo@$#****",
"2******2*****<2*****",
"2******2******2*****",
"<222222<222222<22222"
};
