/* XPM */
static char *_e1644d66ece4e6ac3f373518b8fad42S506BSZ5Dw4hXaud[] = {
/* columns rows colors chars-per-pixel */
"20 20 37 1 ",
"  c black",
". c #010101",
"X c #010202",
"o c #020304",
"O c #222C38",
"+ c #212D3A",
"@ c #25303D",
"# c #26303D",
"$ c #293139",
"% c #2A3139",
"& c #2D333B",
"* c #31373F",
"= c #273443",
"- c #2B3540",
"; c #2B3641",
": c #2B394B",
"> c #2C3948",
", c #2D3C4E",
"< c #303E4E",
"1 c #324152",
"2 c #324253",
"3 c #374553",
"4 c #3A4857",
"5 c #4C5055",
"6 c #4E5156",
"7 c #4E5256",
"8 c #505357",
"9 c #5F5F5F",
"0 c gray40",
"q c #6F6F6F",
"w c #7A7A7B",
"e c #838383",
"r c #A7A7A7",
"t c gray66",
"y c #AEAEAE",
"u c #BCBCBC",
"i c #C0C0C0",
/* pixels */
"3@@@@@@;@@@>11411111",
"$5555558555$O:4,,,,,",
"8rrryyiiiurr5O4,,,,,",
"8rererererer5O4,,,,,",
"5uqiqiqiququ8;144444",
"8iqyqiqiqyqu5@;>1111",
"8yqyqyqyqyqrw58&O:,,",
"8rqrqrqrqrqre   5O,,",
"8r9r9r9r9r9re   5O,,",
"5trryyyyyyrye   8;44",
";555weeeeee0    5@11",
"3@OO5           5O,,",
"4,,O5           5O,,",
"4,,O5           5O,,",
"144;8          o8;44",
"411<@5585555558*@<11",
"4,,,:OO;OOOOO@;=,,,,",
"4,,,,,,4,,,,,14,,,,,",
"4,,,,,,4,,,,,,4,,,,,",
"14444441444444144444"
};
