/* XPM */
static char *_db48bc2703442a8ddb1c4ef1cc002bcQC5ppx3CposgUr8z[] = {
/* columns rows colors chars-per-pixel */
"20 20 10 1 ",
"  c black",
". c #261700",
"X c #2D3C4E",
"o c #324152",
"O c #324253",
"+ c #3A4857",
"@ c #717171",
"# c #9B4F4F",
"$ c gray55",
"% c #CFB4B4",
/* pixels */
"+oooooo+oooooo+ooooo",
"+XXXXXo+oXXXXX+XXXXX",
"+XXXXXX+XXXXXX+XXXXX",
"+XXXXXX+XXXXXX+XXXXX",
"o++++++o++++++o+++++",
"+oooooo+   o  +ooooo",
"+XXXXXo %%$ @@ oXXXX",
"+XXXXXX %%$ @@ XXXXX",
"+XX XXX %%$$$$$ XXXX",
"o+ % ++  %%$.$. ++++",
"+oo % o+  $$.$. oooo",
"+oXX %  @@@$$%%# XXX",
"+XXXX %@@@@@@   XXXX",
"+XXXXX @@@@@@ +XXXXX",
"o++++++ @  @ +o+++++",
"+oooooo+oooooo+ooooo",
"+XXXXXX+XXXXXo+XXXXX",
"+XXXXXX+XXXXXo+XXXXX",
"+XXXXXX+XXXXXX+XXXXX",
"o++++++o++++++o+++++"
};
